<?xml version="1.0" encoding="UTF-8" standalone="no"?>
<svg
   xmlns:dc="http://purl.org/dc/elements/1.1/"
   xmlns:cc="http://creativecommons.org/ns#"
   xmlns:rdf="http://www.w3.org/1999/02/22-rdf-syntax-ns#"
   xmlns:svg="http://www.w3.org/2000/svg"
   xmlns="http://www.w3.org/2000/svg"
   xmlns:sodipodi="http://sodipodi.sourceforge.net/DTD/sodipodi-0.dtd"
   xmlns:inkscape="http://www.inkscape.org/namespaces/inkscape"
   inkscape:version="1.0 (4035a4fb49, 2020-05-01)"
   sodipodi:docname="verified.svg"
   id="svg32"
   version="1.1"
   viewBox="0 0 681 686.689"
   height="686.689"
   width="681">
  <metadata
     id="metadata38">
    <rdf:RDF>
      <cc:Work
         rdf:about="">
        <dc:format>image/svg+xml</dc:format>
        <dc:type
           rdf:resource="http://purl.org/dc/dcmitype/StillImage" />
      </cc:Work>
    </rdf:RDF>
  </metadata>
  <defs
     id="defs36" />
  <sodipodi:namedview
     inkscape:current-layer="Group_25"
     inkscape:window-maximized="1"
     inkscape:window-y="-8"
     inkscape:window-x="-8"
     inkscape:cy="372.73609"
     inkscape:cx="561.26721"
     inkscape:zoom="0.82424501"
     showgrid="false"
     id="namedview34"
     inkscape:window-height="745"
     inkscape:window-width="1366"
     inkscape:pageshadow="2"
     inkscape:pageopacity="0"
     guidetolerance="10"
     gridtolerance="10"
     objecttolerance="10"
     borderopacity="1"
     bordercolor="#666666"
     pagecolor="#ffffff" />
  <g
     transform="matrix(1,0,0,1.0003665,-126.08855,-93.150505)"
     data-name="Group 25"
     id="Group_25">
    <path
       transform="translate(0,0.345)"
       fill="#3f3d56"
       d="m 614,263.086 h -3.663 V 162.735 a 58.08,58.08 0 0 0 -58.08,-58.08 H 339.651 a 58.08,58.08 0 0 0 -58.08,58.08 v 550.53 a 58.08,58.08 0 0 0 58.08,58.08 h 212.606 a 58.08,58.08 0 0 0 58.08,-58.08 V 334.517 H 614 Z"
       data-name="Path 607"
       id="Path_607" />
    <path
       style="fill:#ffffff"
       fill="#ffffff"
       transform="translate(0,0.345)"
       d="M 597.975,163.141 V 712.86 A 43.376,43.376 0 0 1 554.6,756.235 H 340.974 A 43.376,43.376 0 0 1 297.6,712.861 v -549.72 a 43.376,43.376 0 0 1 43.375,-43.375 h 25.916 a 20.617,20.617 0 0 0 19.081,28.389 h 121.8 a 20.617,20.617 0 0 0 19.082,-28.389 H 554.6 a 43.376,43.376 0 0 1 43.375,43.375 z"
       data-name="Path 608"
       id="Path_608" />
    <circle
       transform="translate(384.812,587.922)"
       opacity="0.2"
       fill="#d931eb"
       r="63.208"
       cy="63.208"
       cx="63.208"
       data-name="Ellipse 95"
       id="Ellipse_95" />
    <circle
       transform="translate(397.125,600.235)"
       fill="#d931eb"
       r="50.895"
       cy="50.895"
       cx="50.895"
       data-name="Ellipse 96"
       id="Ellipse_96" />
    <path
       fill="#ffffff"
       transform="translate(184,105)"
       d="m 258.084,567.89 -17.937,-23.061 10.431,-8.113 8.492,10.919 28.689,-30.284 9.594,9.088 z"
       data-name="Path 616"
       id="Path_616" />
  </g>
</svg>
